<?xml version="1.0" standalone="no"?>
<!DOCTYPE svg PUBLIC "-//W3C//DTD SVG 20010904//EN"
 "http://www.w3.org/TR/2001/REC-SVG-20010904/DTD/svg10.dtd">
<svg version="1.0" xmlns="http://www.w3.org/2000/svg"
 width="1024.000000pt" height="1024.000000pt" viewBox="0 0 1024.000000 1024.000000"
 preserveAspectRatio="xMidYMid meet">
<metadata>
Created by potrace 1.14, written by Peter Selinger 2001-2017
</metadata>
<g transform="translate(0.000000,1024.000000) scale(0.100000,-0.100000)"
fill="#000000" stroke="none">
<path d="M4961 9530 c-281 -74 -490 -284 -567 -570 -12 -46 -18 -101 -17 -190
0 -106 4 -138 26 -212 64 -212 200 -374 396 -474 l71 -36 0 -279 0 -279 -367
0 c-389 -1 -435 -3 -578 -26 -653 -107 -1221 -493 -1568 -1066 -34 -57 -69
-118 -76 -136 l-13 -32 -139 0 c-349 0 -484 -17 -687 -86 -347 -118 -654 -382
-830 -714 -91 -173 -151 -370 -167 -550 -9 -97 -9 -1319 0 -1391 3 -30 8 -68
10 -86 2 -17 13 -69 24 -115 128 -538 543 -963 1076 -1101 91 -23 124 -30 220
-42 17 -2 125 -4 242 -5 l212 0 55 -108 c294 -570 817 -991 1436 -1151 266
-70 262 -69 1410 -70 1147 -1 1161 0 1425 64 174 43 293 87 460 169 430 213
790 569 1004 993 l51 101 188 1 c234 2 270 6 417 41 267 63 499 195 706 400
174 174 297 373 367 595 28 91 36 124 58 235 12 56 14 1436 3 1515 -56 404
-277 778 -593 1007 -28 20 -62 45 -76 56 -51 38 -249 132 -350 165 -185 61
-303 74 -722 77 -30 1 -36 6 -62 58 -157 311 -438 623 -745 826 -286 190 -557
293 -946 362 -22 3 -224 8 -450 11 -225 2 -415 5 -421 7 -10 4 -15 550 -4 558
3 2 31 17 63 32 199 98 357 299 407 517 19 84 21 244 4 327 -64 305 -301 544
-603 608 -96 20 -260 17 -350 -6z m1250 -2615 c443 -56 828 -269 1111 -612
l59 -73 -33 0 c-132 0 -316 -12 -383 -25 -87 -17 -218 -51 -250 -65 -193 -83
-276 -129 -388 -214 -217 -164 -376 -371 -490 -636 -63 -148 -107 -381 -107
-574 0 -86 -3 -116 -12 -117 -50 -3 -1180 -1 -1183 3 -3 2 -7 71 -9 154 -12
415 -163 763 -454 1048 -185 181 -444 325 -687 382 -107 25 -239 41 -350 43
-55 1 -102 4 -104 7 -6 5 68 93 154 182 63 67 175 162 235 202 12 8 32 22 44
31 64 49 247 139 374 183 86 30 139 44 276 72 10 2 51 6 90 10 39 3 73 8 75
10 2 2 436 3 965 3 741 -1 985 -4 1067 -14z m-3090 -1259 c137 -10 316 -75
437 -158 80 -55 192 -169 247 -252 59 -90 94 -167 127 -283 23 -78 23 -80 23
-778 0 -698 0 -700 -23 -783 -94 -345 -357 -598 -707 -678 -74 -18 -133 -19
-745 -19 -717 0 -703 -1 -864 55 -242 83 -458 297 -551 545 -57 151 -58 157
-59 845 -1 349 2 662 6 695 26 204 120 397 268 545 156 157 352 247 580 267
96 9 1145 8 1261 -1z m5297 0 c437 -45 788 -396 830 -832 4 -43 7 -353 6 -689
-1 -582 -2 -614 -22 -703 -86 -377 -406 -671 -787 -720 -27 -4 -340 -7 -695
-7 -631 1 -647 1 -733 23 -366 92 -626 361 -702 728 -14 67 -16 168 -16 722 0
418 4 666 11 706 43 239 161 436 350 582 153 118 313 179 505 190 55 4 101 7
102 8 6 5 1099 -3 1151 -8z m-2687 -1998 c2 -178 7 -226 40 -368 63 -273 195
-507 398 -710 212 -211 438 -337 731 -407 88 -21 138 -26 313 -30 114 -3 207
-8 207 -11 0 -3 -31 -47 -69 -97 -75 -98 -220 -243 -316 -316 -237 -181 -552
-307 -835 -335 -93 -10 -1965 -10 -2075 -1 -44 4 -93 9 -110 12 -188 36 -333
83 -476 155 -179 89 -291 171 -440 319 -95 95 -227 256 -217 266 2 2 69 5 148
6 80 1 174 5 210 10 171 24 372 92 533 183 248 138 487 394 604 646 57 123 62
136 87 224 26 89 32 113 42 176 3 19 8 43 10 53 5 16 13 189 14 300 l0 37 600
0 600 0 1 -112z"/>
<path d="M2096 5147 c-268 -29 -496 -228 -567 -494 -20 -71 -21 -107 -23 -433
-1 -309 3 -428 17 -490 29 -124 100 -246 191 -333 58 -55 160 -119 226 -142
113 -40 164 -44 550 -43 426 0 458 4 598 78 142 74 256 200 315 350 36 91 41
138 42 355 l0 189 -195 2 c-208 2 -224 3 -310 32 -131 43 -255 134 -335 247
-65 90 -93 158 -121 295 -2 14 -5 107 -6 208 0 100 -3 183 -7 183 -26 5 -320
2 -375 -4z"/>
<path d="M7395 5147 c-146 -16 -276 -78 -380 -182 -88 -88 -109 -115 -145
-191 -60 -127 -63 -153 -64 -564 -1 -252 2 -398 10 -445 39 -227 189 -413 407
-504 114 -47 190 -53 597 -48 310 3 374 6 424 21 210 62 375 206 451 394 43
105 52 174 51 372 l-1 184 -200 2 c-177 2 -209 5 -280 26 -215 63 -383 224
-455 433 -25 73 -31 136 -33 340 l-2 170 -155 0 c-85 0 -186 -3 -225 -8z"/>
</g>
</svg>
